<?xml version="1.0" encoding="iso-8859-1"?>
<!-- Generator: Adobe Illustrator 16.0.0, SVG Export Plug-In . SVG Version: 6.00 Build 0)  -->
<!DOCTYPE svg PUBLIC "-//W3C//DTD SVG 1.1//EN" "http://www.w3.org/Graphics/SVG/1.1/DTD/svg11.dtd">
<svg version="1.1" id="Layer_1" xmlns="http://www.w3.org/2000/svg" xmlns:xlink="http://www.w3.org/1999/xlink" x="0px" y="0px"
	 width="123px" height="146.807px" viewBox="0 0 123 146.807" style="enable-background:new 0 0 123 146.807;" xml:space="preserve"
	>
<g>
	<path style="fill:#E83F4B;" d="M35.741,108.985c-0.165-0.312-0.33-0.625-0.479-0.947C35.411,108.36,35.576,108.672,35.741,108.985z
		"/>
	<polygon style="fill:#E83F4B;" points="104.435,103.768 106.368,69.598 118.992,10.542 81.863,82.371 	"/>
	<path style="fill:#E83F4B;" d="M34.935,107.262c-0.131-0.32-0.261-0.643-0.377-0.971C34.674,106.62,34.804,106.942,34.935,107.262z
		"/>
	<path style="fill:#E83F4B;" d="M34.299,105.493c-0.104-0.341-0.201-0.684-0.289-1.03C34.098,104.81,34.195,105.152,34.299,105.493z
		"/>
</g>
<polygon style="fill:#E83F4B;" points="118.994,10.54 79.091,24.183 118.994,10.54 "/>
<g>
	<polygon style="fill:#E83F4B;" points="5.761,21.064 6.815,46.141 26.146,52.363 26.146,52.362 43.526,14.679 30.074,2.88 
		5.635,4.787 	"/>
</g>
<path style="fill:#555A59;" d="M52.086,93.658c0.204-2.6,2.476-4.542,5.076-4.338c2.6,0.203,4.543,2.477,4.339,5.076
	s-2.478,4.543-5.077,4.339C53.823,98.531,51.882,96.256,52.086,93.658"/>
<path style="fill:#00B5D8;" d="M57.461,79.245c0.611,0.107,1.209,0.246,1.798,0.404C58.67,79.491,58.072,79.351,57.461,79.245z"/>
<polygon style="fill:#00B5D8;" points="74.649,113.198 75.254,113.005 74.868,112.202 "/>
<path style="fill:#00B5D8;" d="M21.384,132.073l21.148,12.603l0.001-0.002l-0.001,0.002l-0.108-28.197
	c-4.172-2.827-7.215-7.129-8.437-12.102c0,0.001,0,0.003,0,0.004l-24.844-2.918H9.143L21.384,132.073z"/>
<polygon style="fill:#FFCF21;" points="118.994,10.54 79.091,24.183 43.526,14.678 30.074,2.88 74.558,1.253 "/>
<polygon style="fill:#E0DACD;" points="65.414,145.24 84.756,132.867 104.435,103.768 74.426,113.269 42.532,144.675 "/>
<path style="fill:#FFCF21;" d="M33.988,104.38c-0.511-2.076-0.717-4.264-0.54-6.513c0.887-11.311,10.775-19.76,22.083-18.872
	c11.309,0.887,19.759,10.773,18.872,22.085c-0.887,11.309-10.774,19.758-22.084,18.871c-3.678-0.289-7.043-1.542-9.894-3.474
	l0.108,28.197l0.001-0.002l31.893-31.404l0.224-0.071l6.481-29.414L57.423,70.236l-23.834,1.461l7.989-10.515l-15.433-8.82
	l-17.002,49.1L33.988,104.38z"/>
<polygon style="fill:#00B5D8;" points="26.146,52.363 41.578,61.183 52.893,46.291 75.579,69.123 57.423,70.236 81.131,83.784 
	79.091,24.183 43.526,14.678 30.074,2.88 43.526,14.679 "/>
<polygon style="fill:#555A59;" points="60.945,70.021 56.764,70.254 60.495,60.087 64.631,69.795 75.579,69.123 52.893,46.291 
	33.589,71.697 "/>
<polygon style="fill:#555A59;" points="9.143,101.462 26.146,52.363 6.738,46.116 "/>
<g>
	<polygon style="fill:#00B5D8;" points="81.131,83.784 74.649,113.198 102.916,104.25 104.435,103.768 81.87,82.356 	"/>
</g>
<polygon style="fill:#E0DACD;" points="81.131,83.784 79.091,24.183 118.994,10.54 "/>
</svg>
